<svg xmlns="http://www.w3.org/2000/svg" xmlns:xlink="http://www.w3.org/1999/xlink" width="45" zoomAndPan="magnify" viewBox="0 0 33.75 33.749999" height="45" preserveAspectRatio="xMidYMid meet" version="1.0"><defs><clipPath id="e4c8eeaa58"><path d="M 0 5.523438 L 33.5 5.523438 L 33.5 28 L 0 28 Z M 0 5.523438 " clip-rule="nonzero"/></clipPath><clipPath id="b4df1d47de"><path d="M 0 5.523438 L 33.5 5.523438 L 33.5 28.023438 L 0 28.023438 Z M 0 5.523438 " clip-rule="nonzero"/></clipPath></defs><g clip-path="url(#e4c8eeaa58)"><path fill="#00a153" d="M 0.226562 5.730469 L 33.523438 5.730469 L 33.523438 27.816406 L 0.226562 27.816406 Z M 0.226562 5.730469 " fill-opacity="1" fill-rule="nonzero"/></g><g clip-path="url(#b4df1d47de)"><path fill="#00a153" d="M 33.523438 28.027344 L 0.226562 28.027344 C 0.0859375 28.027344 0.015625 27.957031 0.015625 27.816406 L 0.015625 5.730469 C 0.015625 5.59375 0.0859375 5.523438 0.226562 5.523438 L 33.523438 5.523438 C 33.664062 5.523438 33.734375 5.59375 33.734375 5.730469 L 33.734375 27.816406 C 33.734375 27.957031 33.664062 28.027344 33.523438 28.027344 Z M 0.433594 27.609375 L 33.3125 27.609375 L 33.3125 5.9375 L 0.433594 5.9375 Z M 0.433594 27.609375 " fill-opacity="1" fill-rule="nonzero"/></g><path fill="#fbfff0" d="M 31.128906 26.4375 L 2.632812 26.4375 C 2.492188 26.4375 2.421875 26.367188 2.421875 26.226562 L 2.421875 7.320312 C 2.421875 7.179688 2.492188 7.113281 2.632812 7.113281 L 31.128906 7.113281 C 31.265625 7.113281 31.335938 7.179688 31.335938 7.320312 L 31.335938 26.226562 C 31.335938 26.367188 31.265625 26.4375 31.128906 26.4375 Z M 2.839844 26.019531 L 30.917969 26.019531 L 30.917969 7.527344 L 2.839844 7.527344 Z M 2.839844 26.019531 " fill-opacity="1" fill-rule="nonzero"/><path fill="#fbfff0" d="M 6.914062 22.433594 L 2.632812 22.433594 C 2.492188 22.433594 2.421875 22.363281 2.421875 22.226562 C 2.421875 22.085938 2.492188 22.019531 2.632812 22.019531 L 6.707031 22.019531 L 6.707031 11.53125 L 2.632812 11.53125 C 2.492188 11.53125 2.421875 11.460938 2.421875 11.324219 C 2.421875 11.183594 2.492188 11.113281 2.632812 11.113281 L 6.914062 11.113281 C 7.054688 11.113281 7.125 11.183594 7.125 11.324219 L 7.125 22.226562 C 7.125 22.363281 7.054688 22.433594 6.914062 22.433594 Z M 6.914062 22.433594 " fill-opacity="1" fill-rule="nonzero"/><path fill="#fbfff0" d="M 2.632812 18.808594 L 1.558594 18.808594 C 1.421875 18.808594 1.351562 18.738281 1.351562 18.597656 L 1.351562 14.757812 C 1.351562 14.617188 1.421875 14.546875 1.558594 14.546875 L 2.632812 14.546875 C 2.769531 14.546875 2.839844 14.617188 2.839844 14.757812 C 2.839844 14.894531 2.769531 14.964844 2.632812 14.964844 L 1.769531 14.964844 L 1.769531 18.390625 L 2.632812 18.390625 C 2.769531 18.390625 2.839844 18.460938 2.839844 18.597656 C 2.839844 18.738281 2.769531 18.808594 2.632812 18.808594 Z M 2.632812 18.808594 " fill-opacity="1" fill-rule="nonzero"/><path fill="#fbfff0" d="M 4.09375 19.496094 L 2.632812 19.496094 C 2.492188 19.496094 2.421875 19.425781 2.421875 19.289062 C 2.421875 19.148438 2.492188 19.078125 2.632812 19.078125 L 3.886719 19.078125 L 3.886719 14.46875 L 2.632812 14.46875 C 2.492188 14.46875 2.421875 14.398438 2.421875 14.261719 C 2.421875 14.121094 2.492188 14.054688 2.632812 14.054688 L 4.09375 14.054688 C 4.234375 14.054688 4.304688 14.121094 4.304688 14.261719 L 4.304688 19.289062 C 4.304688 19.425781 4.234375 19.496094 4.09375 19.496094 Z M 4.09375 19.496094 " fill-opacity="1" fill-rule="nonzero"/><path fill="#fbfff0" d="M 16.878906 26.4375 C 16.738281 26.4375 16.667969 26.367188 16.667969 26.226562 L 16.667969 7.320312 C 16.667969 7.179688 16.738281 7.113281 16.878906 7.113281 C 17.019531 7.113281 17.089844 7.179688 17.089844 7.320312 L 17.089844 26.226562 C 17.089844 26.367188 17.019531 26.4375 16.878906 26.4375 Z M 16.878906 26.4375 " fill-opacity="1" fill-rule="nonzero"/><path fill="#fbfff0" d="M 16.824219 19.371094 C 16.476562 19.371094 16.140625 19.304688 15.820312 19.171875 C 15.5 19.042969 15.214844 18.855469 14.96875 18.609375 C 14.722656 18.367188 14.535156 18.085938 14.402344 17.769531 C 14.269531 17.449219 14.203125 17.117188 14.203125 16.773438 C 14.203125 16.429688 14.269531 16.097656 14.402344 15.78125 C 14.535156 15.460938 14.722656 15.179688 14.96875 14.9375 C 15.214844 14.695312 15.5 14.507812 15.820312 14.375 C 16.140625 14.242188 16.476562 14.175781 16.824219 14.175781 C 17.171875 14.175781 17.503906 14.242188 17.824219 14.375 C 18.144531 14.507812 18.429688 14.695312 18.675781 14.9375 C 18.921875 15.179688 19.109375 15.460938 19.242188 15.78125 C 19.375 16.097656 19.441406 16.429688 19.441406 16.773438 C 19.441406 17.117188 19.375 17.449219 19.242188 17.765625 C 19.109375 18.085938 18.921875 18.367188 18.675781 18.609375 C 18.429688 18.851562 18.144531 19.039062 17.824219 19.171875 C 17.503906 19.304688 17.167969 19.371094 16.824219 19.371094 Z M 16.824219 14.59375 C 16.53125 14.59375 16.25 14.648438 15.980469 14.757812 C 15.710938 14.871094 15.472656 15.027344 15.265625 15.230469 C 15.058594 15.4375 14.902344 15.671875 14.789062 15.9375 C 14.679688 16.207031 14.621094 16.484375 14.621094 16.773438 C 14.621094 17.0625 14.679688 17.339844 14.789062 17.609375 C 14.902344 17.875 15.058594 18.113281 15.265625 18.316406 C 15.472656 18.519531 15.710938 18.679688 15.980469 18.789062 C 16.25 18.898438 16.53125 18.957031 16.824219 18.957031 C 17.113281 18.957031 17.394531 18.898438 17.664062 18.789062 C 17.933594 18.679688 18.171875 18.519531 18.378906 18.316406 C 18.585938 18.113281 18.742188 17.875 18.855469 17.609375 C 18.96875 17.339844 19.023438 17.0625 19.023438 16.773438 C 19.023438 16.484375 18.964844 16.207031 18.855469 15.941406 C 18.742188 15.671875 18.585938 15.4375 18.378906 15.234375 C 18.171875 15.027344 17.933594 14.871094 17.664062 14.757812 C 17.394531 14.648438 17.113281 14.59375 16.824219 14.59375 Z M 16.824219 14.59375 " fill-opacity="1" fill-rule="nonzero"/><path fill="#fbfff0" d="M 31.128906 22.433594 L 26.621094 22.433594 C 26.480469 22.433594 26.410156 22.363281 26.410156 22.226562 L 26.410156 11.410156 C 26.410156 11.273438 26.480469 11.203125 26.621094 11.203125 L 31.128906 11.203125 C 31.265625 11.203125 31.335938 11.273438 31.335938 11.410156 C 31.335938 11.550781 31.265625 11.621094 31.128906 11.621094 L 26.832031 11.621094 L 26.832031 22.019531 L 31.128906 22.019531 C 31.265625 22.019531 31.335938 22.085938 31.335938 22.226562 C 31.335938 22.363281 31.265625 22.433594 31.128906 22.433594 Z M 31.128906 22.433594 " fill-opacity="1" fill-rule="nonzero"/><path fill="#fbfff0" d="M 32.195312 18.582031 L 31.128906 18.582031 C 30.988281 18.582031 30.917969 18.515625 30.917969 18.375 C 30.917969 18.238281 30.988281 18.167969 31.128906 18.167969 L 31.984375 18.167969 L 31.984375 15.414062 L 31.128906 15.414062 C 30.988281 15.414062 30.917969 15.347656 30.917969 15.207031 C 30.917969 15.070312 30.988281 15 31.128906 15 L 32.195312 15 C 32.335938 15 32.40625 15.070312 32.40625 15.207031 L 32.40625 18.375 C 32.40625 18.515625 32.335938 18.582031 32.195312 18.582031 Z M 32.195312 18.582031 " fill-opacity="1" fill-rule="nonzero"/><path fill="#fbfff0" d="M 31.128906 19.558594 L 29.570312 19.558594 C 29.429688 19.558594 29.359375 19.488281 29.359375 19.351562 L 29.359375 14.253906 C 29.359375 14.113281 29.429688 14.042969 29.570312 14.042969 L 31.128906 14.042969 C 31.265625 14.042969 31.335938 14.113281 31.335938 14.253906 C 31.335938 14.390625 31.265625 14.460938 31.128906 14.460938 L 29.777344 14.460938 L 29.777344 19.140625 L 31.128906 19.140625 C 31.265625 19.140625 31.335938 19.210938 31.335938 19.351562 C 31.335938 19.488281 31.265625 19.558594 31.128906 19.558594 Z M 31.128906 19.558594 " fill-opacity="1" fill-rule="nonzero"/><path fill="#fbfff0" d="M 26.523438 18.808594 C 26.476562 18.808594 26.4375 18.792969 26.402344 18.769531 C 25.804688 18.351562 25.480469 17.652344 25.480469 16.792969 C 25.480469 15.917969 25.824219 15.207031 26.453125 14.785156 C 26.566406 14.707031 26.664062 14.726562 26.742188 14.84375 C 26.824219 14.957031 26.804688 15.054688 26.6875 15.132812 C 26.179688 15.472656 25.898438 16.0625 25.898438 16.792969 C 25.898438 17.300781 26.027344 18 26.644531 18.429688 C 26.726562 18.488281 26.753906 18.566406 26.722656 18.660156 C 26.691406 18.757812 26.625 18.808594 26.523438 18.808594 Z M 26.523438 18.808594 " fill-opacity="1" fill-rule="nonzero"/><path fill="#fbfff0" d="M 7.054688 18.800781 C 6.953125 18.800781 6.886719 18.753906 6.855469 18.65625 C 6.824219 18.558594 6.851562 18.484375 6.933594 18.425781 C 7.550781 17.996094 7.679688 17.296875 7.679688 16.785156 C 7.679688 16.054688 7.398438 15.464844 6.890625 15.125 C 6.777344 15.050781 6.757812 14.953125 6.835938 14.839844 C 6.914062 14.722656 7.011719 14.703125 7.128906 14.78125 C 7.753906 15.203125 8.097656 15.914062 8.097656 16.785156 C 8.097656 17.644531 7.773438 18.347656 7.175781 18.765625 C 7.140625 18.789062 7.101562 18.800781 7.054688 18.800781 Z M 7.054688 18.800781 " fill-opacity="1" fill-rule="nonzero"/></svg>